<?xml version="1.0" encoding="utf-8"?>
<!-- Generator: Adobe Illustrator 22.0.0, SVG Export Plug-In . SVG Version: 6.00 Build 0)  -->
<svg version="1.1" xmlns="http://www.w3.org/2000/svg" xmlns:xlink="http://www.w3.org/1999/xlink" x="0px" y="0px"
     viewBox="0 0 118 136.9" style="enable-background:new 0 0 118 136.9;" xml:space="preserve">
<style type="text/css">
	.st0{fill:#009EE2;}
	.st1{fill:#621360;}
	.st2{fill:#0076A6;}
	.st3{fill:#3C0238;}
	.st4{fill:#505456;}
</style>
  <g id="Stacked">
	<g>
		<g>
			<path class="st0" d="M0,49.8c0,13.8,11.2,24.9,24.9,24.9h24.9V0H0V49.8z"/>
      <path class="st1" d="M49.8,24.9L49.8,24.9H24.9v49.8v24.9l24.9-24.9c13.8,0,24.9-11.2,24.9-24.9C74.8,36.1,63.6,24.9,49.8,24.9z"
      />
      <polygon class="st2" points="49.8,0 49.8,24.9 24.9,24.9 			"/>
      <rect x="24.9" y="24.9" class="st3" width="24.9" height="49.8"/>
		</g>
    <g>
			<path class="st4" d="M5.1,121.1c-3.4,0-5.1-2-5.1-5v-7.6h2.4v7.6c0,1.8,0.9,3,2.8,3c1.9,0,2.8-1.2,2.8-3v-7.6h2.4v7.6
				C10.3,119.1,8.5,121.1,5.1,121.1z"/>
      <path class="st4" d="M20.3,120.9l-5.7-8.5v8.5h-2.3v-12.4h2.5l5.6,8.4v-8.4h2.3v12.4H20.3z"/>
      <path class="st4" d="M24.9,120.9v-12.4h2.4v12.4H24.9z"/>
      <path class="st4" d="M35.6,120.9H33l-4.3-12.4h2.5l3.2,9.5l3.2-9.5h2.4L35.6,120.9z"/>
      <path class="st4" d="M41.3,120.9v-12.4h9.3v2h-7v2.9h6.1v2h-6.1v3.4h7v2H41.3z"/>
      <path class="st4" d="M59.9,120.9l-2.2-4.7h-2.9v4.7h-2.4v-12.4h5.5c3.1,0,4.5,1.9,4.5,3.9c0,1.7-1,3-2.4,3.5l2.4,5.1H59.9z
				 M57.9,110.5h-3.1v3.7H58c1.3,0,2.1-0.7,2.1-1.8C60.1,111.3,59.3,110.5,57.9,110.5z"/>
      <path class="st4" d="M72.7,119.8c-1,0.9-2.5,1.3-4.1,1.3c-1.4,0-2.8-0.3-3.9-1.3c-0.8-0.7-1.4-1.7-1.4-2.9h2.4
				c0,0.6,0.3,1.2,0.7,1.5c0.6,0.5,1.4,0.7,2.2,0.7c0.9,0,1.8-0.2,2.3-0.7c0.3-0.3,0.5-0.6,0.5-1.2c0-0.9-0.7-1.3-1.6-1.5
				c-0.9-0.2-2-0.2-2.9-0.3c-1.8-0.3-3.3-1.4-3.3-3.5c0-1,0.5-1.8,1.1-2.4c0.9-0.8,2.3-1.3,3.8-1.3c1.4,0,2.8,0.4,3.7,1.2
				c0.8,0.7,1.3,1.6,1.3,2.6h-2.4c0-0.4-0.3-0.9-0.6-1.2c-0.4-0.4-1.3-0.7-2-0.7c-0.7,0-1.6,0.2-2.1,0.7c-0.3,0.3-0.4,0.6-0.4,1
				c0,0.8,0.6,1.2,1.3,1.3c0.8,0.1,2,0.2,2.8,0.3c2,0.3,3.6,1.5,3.6,3.6C73.8,118.4,73.3,119.2,72.7,119.8z"/>
      <path class="st4" d="M75.4,120.9v-12.4h2.4v12.4H75.4z"/>
      <path class="st4" d="M85.8,110.6v10.3h-2.4v-10.3h-3.9v-2.1h10.1v2.1H85.8z"/>
      <path class="st4" d="M97.6,116.1v4.8h-2.4v-4.8l-4.5-7.6h2.6l3.2,5.4l3.2-5.4h2.5L97.6,116.1z"/>
		</g>
    <g>
			<path class="st4" d="M5.5,132.5H2.7v4.5H0.4v-12.4h5.2c3,0,4.6,1.6,4.6,4C10.2,130.9,8.6,132.5,5.5,132.5z M5.4,126.5H2.7v4h2.7
				c1.6,0,2.3-0.8,2.3-2C7.8,127.3,7,126.5,5.4,126.5z"/>
      <path class="st4" d="M20,135.8c-1,0.9-2.4,1.4-3.8,1.4c-1.4,0-2.8-0.5-3.8-1.4c-1.4-1.4-1.7-3-1.7-5c0-2,0.2-3.7,1.7-5.1
				c1-0.9,2.4-1.4,3.8-1.4c1.4,0,2.8,0.5,3.8,1.4c1.4,1.4,1.7,3,1.7,5.1C21.6,132.8,21.4,134.4,20,135.8z M18.2,127.1
				c-0.5-0.5-1.3-0.8-2.1-0.8c-0.8,0-1.6,0.3-2.1,0.8c-0.9,0.9-0.9,2.4-0.9,3.6c0,1.1,0,2.7,0.9,3.6c0.5,0.5,1.3,0.8,2.1,0.8
				c0.8,0,1.6-0.3,2.1-0.8c0.9-0.9,0.9-2.4,0.9-3.6C19.2,129.6,19.2,128,18.2,127.1z"/>
      <path class="st4" d="M30.5,136.9l-2.2-4.7h-2.9v4.7H23v-12.4h5.5c3.1,0,4.6,1.9,4.6,3.9c0,1.7-1,3-2.4,3.5l2.4,5.1H30.5z
				 M28.6,126.5h-3.2v3.7h3.2c1.4,0,2.1-0.7,2.1-1.8C30.7,127.4,29.9,126.5,28.6,126.5z"/>
      <path class="st4" d="M40.1,126.6v10.3h-2.4v-10.3h-3.9v-2.1H44v2.1H40.1z"/>
      <path class="st4" d="M53.8,135.8c-1,0.9-2.5,1.3-4.2,1.3c-1.4,0-2.9-0.4-3.9-1.3c-0.8-0.7-1.4-1.7-1.4-2.9h2.4
				c0,0.6,0.3,1.2,0.7,1.5c0.6,0.5,1.4,0.7,2.2,0.7c0.9,0,1.8-0.2,2.3-0.7c0.3-0.3,0.5-0.6,0.5-1.2c0-0.9-0.7-1.3-1.6-1.5
				c-0.9-0.2-2-0.2-2.9-0.3c-1.8-0.3-3.3-1.4-3.3-3.5c0-1,0.5-1.8,1.1-2.5c0.9-0.8,2.3-1.3,3.9-1.3c1.4,0,2.8,0.4,3.7,1.2
				c0.8,0.7,1.3,1.6,1.3,2.7h-2.4c0-0.4-0.3-0.9-0.6-1.2c-0.4-0.4-1.3-0.7-2-0.7c-0.7,0-1.6,0.2-2.1,0.7c-0.3,0.3-0.4,0.6-0.4,1.1
				c0,0.8,0.6,1.2,1.3,1.4c0.8,0.1,2,0.2,2.9,0.3c2,0.3,3.6,1.5,3.6,3.6C54.9,134.4,54.4,135.2,53.8,135.8z"/>
      <path class="st4" d="M67.4,136.9v-8.9l-3.4,8.7h-1.8l-3.4-8.8v9h-2.3v-12.4h3.2l3.4,8.9l3.5-8.9h3.1v12.4H67.4z"/>
      <path class="st4" d="M80.4,135.8c-1,0.9-2.4,1.4-3.8,1.4c-1.4,0-2.8-0.5-3.8-1.4c-1.4-1.4-1.7-3-1.7-5c0-2,0.2-3.7,1.7-5.1
				c1-0.9,2.4-1.4,3.8-1.4c1.4,0,2.8,0.5,3.8,1.4c1.4,1.4,1.7,3,1.7,5.1C82.1,132.8,81.8,134.4,80.4,135.8z M78.7,127.1
				c-0.5-0.5-1.3-0.8-2.1-0.8c-0.8,0-1.6,0.3-2.1,0.8c-0.9,0.9-0.9,2.4-0.9,3.6c0,1.1,0,2.7,0.9,3.6c0.5,0.5,1.3,0.8,2.1,0.8
				c0.8,0,1.6-0.3,2.1-0.8c0.9-0.9,0.9-2.4,0.9-3.6C79.6,129.6,79.6,128,78.7,127.1z"/>
      <path class="st4" d="M88.7,137.2c-3.4,0-5.2-2-5.2-5v-7.7h2.4v7.6c0,1.8,0.9,3,2.8,3s2.8-1.2,2.8-3v-7.6h2.4v7.7
				C93.8,135.1,92.1,137.2,88.7,137.2z"/>
      <path class="st4" d="M101.4,126.6v10.3H99v-10.3h-3.9v-2.1h10.2v2.1H101.4z"/>
      <path class="st4" d="M114.3,136.9v-5.4h-5.4v5.4h-2.4v-12.4h2.4v4.9h5.4v-4.9h2.4v12.4H114.3z"/>
		</g>
    <g>
			<path class="st4" d="M109.2,120c-0.7,0.7-1.7,1-2.7,1c-1,0-2-0.3-2.7-1c-1-1-1.2-2.2-1.2-3.6c0-1.5,0.2-2.7,1.2-3.7
				c0.7-0.7,1.7-1,2.7-1c1,0,2,0.3,2.7,1c1,1,1.2,2.2,1.2,3.7C110.4,117.9,110.2,119.1,109.2,120z M108,113.8
				c-0.4-0.4-1-0.6-1.5-0.6c-0.5,0-1.1,0.2-1.5,0.6c-0.7,0.6-0.7,1.8-0.7,2.6c0,0.8,0,1.9,0.7,2.6c0.4,0.4,1,0.6,1.5,0.6
				c0.6,0,1.1-0.2,1.5-0.6c0.7-0.6,0.7-1.8,0.7-2.6C108.7,115.6,108.6,114.5,108,113.8z"/>
      <path class="st4" d="M113.2,113.4v2.4h4.3v1.5h-4.3v3.6h-1.7v-9h6.6v1.5H113.2z"/>
		</g>
	</g>
</g>
  <g id="Linear">
</g>
</svg>
